STARTFONT 2.1
FONT -Adobe-ITC Souvenir-Demi-R-Normal--34-240-100-100-P-191-ISO8859-15
SIZE 24 100 100
FONTBOUNDINGBOX 35 38 -2 -7

STARTPROPERTIES 30
FOUNDRY "Adobe"
FAMILY_NAME "ITC Souvenir"
WEIGHT_NAME "Demi"
SLANT "R"
SETWIDTH_NAME "Normal"
ADD_STYLE_NAME ""
PIXEL_SIZE 34
POINT_SIZE 240
RESOLUTION_X 100
RESOLUTION_Y 100
SPACING "P"
AVERAGE_WIDTH 191
CHARSET_REGISTRY "ISO8859"
CHARSET_ENCODING "15"
CAP_HEIGHT 24
X_HEIGHT 16
FACE_NAME "ITC Souvenir Demi"
COPYRIGHT "Copyright (c) 1984, 1987 Adobe Systems Incorporated. All Rights Reserved. Copyright (c) 1988, 1991 Digital Equipment Corporation. All Rights Reserved."
NOTICE "ITC Souvenir is a registered trademark of International Typeface Corporation.  "
_DEC_DEVICE_FONTNAMES "PS=Souvenir-Demi"
_DEC_PRODUCTINFO "DECwindows Fonts V2.2, 07-Nov-1991"
RELATIVE_SETWIDTH 50
RELATIVE_WEIGHT 60
CHARSET_COLLECTIONS "ASCII ISO8859-1 ADOBE-STANDARD"
FULL_NAME "ITC Souvenir Demi"
WEIGHT 10
QUAD_WIDTH 23
DEFAULT_CHAR 32
FONT_DESCENT 7
FONT_ASCENT 28
ENDPROPERTIES

CHARS 191

STARTCHAR space
ENCODING 32
SWIDTH 340 0
DWIDTH 11 0
BBX 1 1 0 0
BITMAP
00
ENDCHAR

STARTCHAR exclam
ENCODING 33
SWIDTH 360 0
DWIDTH 12 0
BBX 6 24 3 0
BITMAP
78
FC
FC
FC
FC
FC
FC
78
78
78
78
78
78
78
30
30
30
30
00
78
FC
FC
FC
78
ENDCHAR

STARTCHAR quotedbl
ENCODING 34
SWIDTH 580 0
DWIDTH 19 0
BBX 11 10 3 14
BITMAP
60C0
F1E0
F1E0
F1E0
F1E0
60C0
60C0
60C0
60C0
60C0
ENDCHAR

STARTCHAR numbersign
ENCODING 35
SWIDTH 680 0
DWIDTH 22 0
BBX 19 19 1 3
BITMAP
008100
01C380
01C380
038700
038700
1FFFE0
3FFFE0
3FFFC0
070E00
060C00
0E1C00
7FFF80
FFFF80
FFFF00
1C7000
1C7000
38E000
38E000
104000
ENDCHAR

STARTCHAR dollar
ENCODING 36
SWIDTH 680 0
DWIDTH 21 0
BBX 15 30 3 -3
BITMAP
0300
0300
0300
0300
0FC0
3FF0
7878
703C
F01C
F018
F800
FC00
7F00
7FE0
3FF8
1FFC
07FC
00FE
003E
001E
C01E
E01C
F03C
7CF8
3FF0
0FC0
0300
0300
0300
0300
ENDCHAR

STARTCHAR percent
ENCODING 37
SWIDTH 940 0
DWIDTH 30 0
BBX 27 25 1 -1
BITMAP
0F000000
39C00E00
70E01C00
70E01800
F0F03000
F0F07000
F0F06000
F0F0C000
F0F1C000
F0F38000
70E30000
70E61E00
39CE7380
1F8CE1C0
0018E1C0
0039E1E0
0071E1E0
0061E1E0
00C1E1E0
01C1E1E0
0181E1E0
0300E1C0
0700E1C0
0E007380
00001E00
ENDCHAR

STARTCHAR ampersand
ENCODING 38
SWIDTH 840 0
DWIDTH 27 0
BBX 26 24 0 0
BITMAP
00FC0000
03FF0000
07C78000
0F83C000
0F83C000
0F83C000
0F878000
0FCF8000
07FF0000
07FC0000
03F83F80
07F83F80
1FFC1E00
3CFC1C00
7C7E1C00
783F1800
F83FB000
F81FF000
F80FE000
7C07F000
7E0FF8C0
3FFEFFC0
1FF87F80
03E01E00
ENDCHAR

STARTCHAR quoteright
ENCODING 39
SWIDTH 320 0
DWIDTH 10 0
BBX 5 8 2 16
BITMAP
70
F8
F8
78
38
30
30
40
ENDCHAR

STARTCHAR parenleft
ENCODING 40
SWIDTH 340 0
DWIDTH 11 0
BBX 8 31 1 -7
BITMAP
03
07
0F
0E
1E
3E
3C
3C
7C
78
78
F8
F8
F8
F8
F8
F8
F8
F8
F8
78
7C
7C
3C
3C
3E
1E
1E
0F
07
03
ENDCHAR

STARTCHAR parenright
ENCODING 41
SWIDTH 340 0
DWIDTH 11 0
BBX 8 31 1 -7
BITMAP
C0
E0
F0
78
78
7C
3C
3C
3E
3E
1E
1F
1F
1F
1F
1F
1F
1F
1F
1F
1E
1E
3E
3C
3C
7C
78
70
F0
E0
C0
ENDCHAR

STARTCHAR asterisk
ENCODING 42
SWIDTH 400 0
DWIDTH 13 0
BBX 10 11 1 14
BITMAP
0C00
0C00
CCC0
FFC0
7F80
0C00
7F80
FFC0
CCC0
0C00
0C00
ENDCHAR

STARTCHAR plus
ENCODING 43
SWIDTH 660 0
DWIDTH 21 0
BBX 15 17 3 1
BITMAP
0380
0380
0380
0380
0380
0380
0380
FFFE
FFFE
FFFE
0380
0380
0380
0380
0380
0380
0380
ENDCHAR

STARTCHAR comma
ENCODING 44
SWIDTH 340 0
DWIDTH 10 0
BBX 6 9 2 -5
BITMAP
78
FC
FC
FC
3C
18
38
30
60
ENDCHAR

STARTCHAR minus
ENCODING 45
SWIDTH 660 0
DWIDTH 21 0
BBX 15 3 3 8
BITMAP
FFFE
FFFE
FFFE
ENDCHAR

STARTCHAR period
ENCODING 46
SWIDTH 340 0
DWIDTH 10 0
BBX 6 5 2 0
BITMAP
78
FC
FC
FC
78
ENDCHAR

STARTCHAR slash
ENCODING 47
SWIDTH 460 0
DWIDTH 15 0
BBX 13 29 0 -5
BITMAP
0018
0018
0030
0030
0030
0060
0060
00C0
00C0
0080
0180
0180
0300
0300
0600
0600
0600
0C00
0C00
1800
1800
1000
3000
3000
6000
6000
C000
C000
C000
ENDCHAR

STARTCHAR zero
ENCODING 48
SWIDTH 680 0
DWIDTH 21 0
BBX 19 24 1 0
BITMAP
01F000
07FC00
0F1E00
1E0F00
3E0F80
7E0F80
7C07C0
7C07C0
7C07C0
FC07E0
FC07E0
FC07E0
FC07E0
FC07E0
FC07E0
7C07C0
7C07C0
7C07C0
3E0FC0
3E0F80
1E0F00
1F1F00
07FC00
01F000
ENDCHAR

STARTCHAR one
ENCODING 49
SWIDTH 680 0
DWIDTH 21 0
BBX 13 24 4 0
BITMAP
0180
07C0
3FC0
FFC0
FFC0
0FC0
0FC0
0FC0
0FC0
0FC0
0FC0
0FC0
0FC0
0FC0
0FC0
0FC0
0FC0
0FC0
0FC0
0FC0
0FC0
0FC0
7FF8
7FF8
ENDCHAR

STARTCHAR two
ENCODING 50
SWIDTH 680 0
DWIDTH 21 0
BBX 17 24 2 0
BITMAP
07F000
1FFC00
3C7E00
783F00
F01F00
F01F80
F81F80
F81F80
703F00
003F00
007E00
007C00
00F800
01F000
03E000
07C000
0F8000
1F0000
3E0180
7C0380
FFFF80
FFFF00
FFFF00
FFFF00
ENDCHAR

STARTCHAR three
ENCODING 51
SWIDTH 680 0
DWIDTH 21 0
BBX 17 24 2 0
BITMAP
07E000
1FF800
3C7E00
783E00
783F00
783F00
383F00
003E00
003E00
007C00
0FF000
0FF800
00FC00
003E00
001F00
001F80
001F80
701F80
F01F80
F81F00
F83F00
7C7E00
3FFC00
0FE000
ENDCHAR

STARTCHAR four
ENCODING 52
SWIDTH 680 0
DWIDTH 21 0
BBX 18 24 1 0
BITMAP
003C00
007E00
00FE00
01FE00
03FE00
077E00
077E00
0E7E00
0C7E00
1C7E00
187E00
387E00
307E00
707E00
607E00
E07E00
FFFFC0
FFFFC0
007E00
007E00
007E00
007E00
01FF80
01FF80
ENDCHAR

STARTCHAR five
ENCODING 53
SWIDTH 680 0
DWIDTH 21 0
BBX 17 24 2 0
BITMAP
3FFF00
3FFE00
3FFC00
3FF000
300000
300000
300000
300000
300000
73F000
7FFC00
7E7E00
383F00
001F00
001F80
001F80
001F80
601F80
F01F00
F01F00
F03E00
787E00
3FF800
0FE000
ENDCHAR

STARTCHAR six
ENCODING 54
SWIDTH 680 0
DWIDTH 21 0
BBX 18 24 1 0
BITMAP
003F00
00FF00
03F000
07C000
0F8000
1F0000
3E0000
3E0000
7C0000
7CF800
7FFE00
FF1F00
FE1F80
FC0F80
FC0FC0
FC0FC0
FC0FC0
7C0FC0
7C0F80
7C0F80
3E1F00
1F1F00
0FFC00
03F000
ENDCHAR

STARTCHAR seven
ENCODING 55
SWIDTH 680 0
DWIDTH 21 0
BBX 16 24 2 0
BITMAP
7FFF
7FFF
7FFE
FFFE
E00E
C01C
001C
003C
0038
0078
0078
00F0
00F0
00F0
01F0
01E0
03E0
03E0
07E0
07C0
0FC0
0FC0
1F80
1F80
ENDCHAR

STARTCHAR eight
ENCODING 56
SWIDTH 680 0
DWIDTH 21 0
BBX 18 24 1 0
BITMAP
03F800
0FFE00
1F1F00
3E0F80
3C0780
7C0780
7E0780
3F0780
3FCF00
1FFE00
0FF800
07FC00
07FE00
1FFF00
3C7F80
7C1F80
780FC0
F807C0
F807C0
7807C0
7C0F80
3E1F00
1FFE00
07F800
ENDCHAR

STARTCHAR nine
ENCODING 57
SWIDTH 680 0
DWIDTH 21 0
BBX 18 24 1 0
BITMAP
03F000
0FFC00
3F3E00
3E1F00
7C0F80
7C0F80
FC0FC0
FC0FC0
FC0FC0
FC0FC0
7C1FC0
7E1FC0
3F3FC0
1FFFC0
07CF80
000F80
001F00
001F00
003E00
007C00
00F800
03F000
3FE000
3F0000
ENDCHAR

STARTCHAR colon
ENCODING 58
SWIDTH 340 0
DWIDTH 10 0
BBX 6 14 2 0
BITMAP
78
FC
FC
FC
78
00
00
00
00
78
FC
FC
FC
78
ENDCHAR

STARTCHAR semicolon
ENCODING 59
SWIDTH 340 0
DWIDTH 10 0
BBX 6 19 2 -5
BITMAP
78
FC
FC
FC
78
00
00
00
00
00
78
FC
FC
7C
3C
18
18
30
60
ENDCHAR

STARTCHAR less
ENCODING 60
SWIDTH 660 0
DWIDTH 21 0
BBX 17 19 2 0
BITMAP
000080
000380
000F80
003F00
00FC00
03E000
0F8000
3E0000
F80000
E00000
F80000
3E0000
0F8000
03E000
00F800
003F00
000F80
000380
000080
ENDCHAR

STARTCHAR equal
ENCODING 61
SWIDTH 660 0
DWIDTH 21 0
BBX 16 8 2 5
BITMAP
FFFF
FFFF
FFFF
0000
0000
FFFF
FFFF
FFFF
ENDCHAR

STARTCHAR greater
ENCODING 62
SWIDTH 660 0
DWIDTH 21 0
BBX 17 19 2 0
BITMAP
800000
E00000
F80000
7E0000
1F8000
03E000
00F800
003E00
000F80
000380
000F80
003E00
00F800
03E000
0F8000
7E0000
F80000
E00000
800000
ENDCHAR

STARTCHAR question
ENCODING 63
SWIDTH 540 0
DWIDTH 17 0
BBX 14 24 1 0
BITMAP
0FC0
3FF0
78F8
F07C
F07C
F07C
607C
007C
00FC
00F8
03F8
07E0
0FC0
0F00
0E00
0E00
0600
0000
0000
0F00
1F00
1F80
1F80
0F00
ENDCHAR

STARTCHAR at
ENCODING 64
SWIDTH 860 0
DWIDTH 28 0
BBX 22 24 2 0
BITMAP
007F00
01FFC0
0781E0
0E0070
1C0038
380018
3039DC
60FF8C
E1E78C
C1C70C
C3C70C
C3870C
C78E0C
C70E1C
C70E18
C71C38
E73C70
63FFE0
31CF8C
38001C
1C0038
0F00F0
03FFC0
00FF00
ENDCHAR

STARTCHAR A
ENCODING 65
SWIDTH 740 0
DWIDTH 23 0
BBX 23 24 0 0
BITMAP
003800
007C00
007C00
00FE00
00FE00
01FE00
019F00
019F00
039F80
030F80
070F80
0707C0
0607C0
0E07C0
0FFFE0
0FFFE0
1FFFF0
1C01F0
1801F0
3800F0
3800F8
3800F8
FC01FE
FC01FE
ENDCHAR

STARTCHAR B
ENCODING 66
SWIDTH 740 0
DWIDTH 23 0
BBX 21 24 1 0
BITMAP
FFFE00
FFFF80
7FFFC0
7E07E0
7E03E0
7E03E0
7E03E0
7E03C0
7E07C0
7E0F80
7E7E00
7FFF80
7FFFE0
7E07F0
7E03F0
7E01F8
7E01F8
7E01F8
7E01F8
7E01F0
7E03F0
7FFFE0
FFFF80
FFFE00
ENDCHAR

STARTCHAR C
ENCODING 67
SWIDTH 760 0
DWIDTH 24 0
BBX 21 24 1 0
BITMAP
007F00
01FFE0
07E3F0
0F80F8
1F0078
3E0038
3E0018
7C0018
7C0000
FC0000
FC0000
FC0000
FC0000
FC0000
FC0000
7C0000
7C0000
7E0008
3E0018
1F0038
1FC0F0
07FFE0
03FFC0
007E00
ENDCHAR

STARTCHAR D
ENCODING 68
SWIDTH 820 0
DWIDTH 26 0
BBX 23 24 1 0
BITMAP
FFF800
FFFF00
7FFFE0
7E0FF0
7E03F8
7E01F8
7E00FC
7E00FC
7E007E
7E007E
7E007E
7E007E
7E007E
7E007E
7E007E
7E007E
7E00FC
7E00FC
7E01F8
7E01F8
7E07F0
7FFFE0
FFFF80
FFFC00
ENDCHAR

STARTCHAR E
ENCODING 69
SWIDTH 660 0
DWIDTH 21 0
BBX 19 24 1 0
BITMAP
FFFF80
FFFF80
7FFF80
7E0180
7E0080
7E0000
7E0000
7E0000
7E0000
7E0600
7FFE00
7FFE00
7FFE00
7E0600
7E0000
7E0000
7E0000
7E0000
7E0020
7E0060
7E01E0
7FFFC0
FFFFC0
FFFFC0
ENDCHAR

STARTCHAR F
ENCODING 70
SWIDTH 620 0
DWIDTH 20 0
BBX 17 24 1 0
BITMAP
FFFF80
FFFF80
7FFF80
7E0180
7E0080
7E0000
7E0000
7E0000
7E0000
7E0600
7FFE00
7FFE00
7FFE00
7E0600
7E0000
7E0000
7E0000
7E0000
7E0000
7E0000
7E0000
7E0000
FF0000
FF0000
ENDCHAR

STARTCHAR G
ENCODING 71
SWIDTH 780 0
DWIDTH 25 0
BBX 22 24 1 0
BITMAP
007F80
01FFE0
07E3F8
0F80F8
1F0038
3F0018
7E0018
7E0000
7C0000
FC0000
FC0000
FC0000
FC0FFC
FC0FFC
FC01FC
FC007C
7E007C
7E007C
3F007C
3F007C
1F80FC
07E3F8
03FFC0
00FF00
ENDCHAR

STARTCHAR H
ENCODING 72
SWIDTH 820 0
DWIDTH 26 0
BBX 23 24 1 0
BITMAP
FF01FE
FF01FE
7E00FC
7E00FC
7E00FC
7E00FC
7E00FC
7E00FC
7E00FC
7E00FC
7FFFFC
7FFFFC
7FFFFC
7E00FC
7E00FC
7E00FC
7E00FC
7E00FC
7E00FC
7E00FC
7E00FC
7E00FC
FF01FE
FF01FE
ENDCHAR

STARTCHAR I
ENCODING 73
SWIDTH 340 0
DWIDTH 11 0
BBX 8 24 1 0
BITMAP
FF
FF
7E
7E
7E
7E
7E
7E
7E
7E
7E
7E
7E
7E
7E
7E
7E
7E
7E
7E
7E
7E
FF
FF
ENDCHAR

STARTCHAR J
ENCODING 74
SWIDTH 560 0
DWIDTH 18 0
BBX 16 24 0 0
BITMAP
00FF
00FF
007E
007E
007E
007E
007E
007E
007E
007E
007E
007E
007E
007E
1C7E
7E7E
7E7E
F87E
F07E
F07C
F07C
78FC
3FF8
0FE0
ENDCHAR

STARTCHAR K
ENCODING 75
SWIDTH 780 0
DWIDTH 25 0
BBX 22 24 1 0
BITMAP
FF03F8
FF03F8
7E01F0
7E01E0
7E03C0
7E0380
7E0700
7E0E00
7E1C00
7E3C00
7EFC00
7FFE00
7FFE00
7F3F00
7E1F80
7E1F80
7E0FC0
7E07E0
7E07E0
7E03F0
7E03F0
7E01F8
FF03FC
FF03FC
ENDCHAR

STARTCHAR L
ENCODING 76
SWIDTH 600 0
DWIDTH 19 0
BBX 17 24 1 0
BITMAP
FF0000
FF0000
7E0000
7E0000
7E0000
7E0000
7E0000
7E0000
7E0000
7E0000
7E0000
7E0000
7E0000
7E0000
7E0000
7E0000
7E0000
7E0000
7E0080
7E0180
7E0780
7FFF00
FFFF00
FFFF00
ENDCHAR

STARTCHAR M
ENCODING 77
SWIDTH 920 0
DWIDTH 29 0
BBX 28 24 0 0
BITMAP
FF800FF0
FF801FF0
3FC01FC0
3FC03FC0
3FC03FC0
3FE03FC0
3FE07FC0
3BF06FC0
3BF0EFC0
3BF0EFC0
39F8CFC0
39F9CFC0
38F98FC0
38FF8FC0
38FF8FC0
387F0FC0
387F0FC0
383E0FC0
383E0FC0
383E0FC0
381C0FC0
38000FC0
FE001FE0
FE001FE0
ENDCHAR

STARTCHAR N
ENCODING 78
SWIDTH 760 0
DWIDTH 24 0
BBX 22 24 1 0
BITMAP
FE01FC
FF01FC
3F8070
3FC070
3FC070
3FE070
3FF070
3BF070
3BF870
39F870
38FC70
38FE70
387E70
383F70
383FF0
381FF0
380FF0
380FF0
3807F0
3803F0
3803F0
3801F0
FE01F0
FE00F0
ENDCHAR

STARTCHAR O
ENCODING 79
SWIDTH 860 0
DWIDTH 27 0
BBX 24 24 1 0
BITMAP
00FF00
03FFC0
0FC3F0
1F00F8
3E0078
3E007C
7C003E
7C003E
7C003E
FC003F
FC003F
FC003F
FC003F
FC003F
FC003F
7C003E
7C003E
7C003E
3E007C
3E0078
1F00F0
0FC3E0
03FFC0
00FF00
ENDCHAR

STARTCHAR P
ENCODING 80
SWIDTH 680 0
DWIDTH 21 0
BBX 20 24 1 0
BITMAP
FFFE00
FFFF80
7FFFC0
7E07E0
7E03F0
7E03F0
7E03F0
7E03F0
7E03F0
7E07E0
7E0FE0
7E1FC0
7E7F80
7FFE00
7FF000
7E0000
7E0000
7E0000
7E0000
7E0000
7E0000
7E0000
FF8000
FF8000
ENDCHAR

STARTCHAR Q
ENCODING 81
SWIDTH 860 0
DWIDTH 27 0
BBX 24 29 1 -5
BITMAP
00FF00
03FFC0
0FC3F0
1F00F8
3E007C
3E007C
7C003E
7C003E
7C003E
FC003F
FC003F
FC003F
FC003F
FC003F
FC003F
7C003E
7C083E
7C1C3C
3E1C7C
3E1C78
1F1CF0
0FCFE0
03FF80
007F00
0007C0
0003FC
0001FE
0000FE
00003C
ENDCHAR

STARTCHAR R
ENCODING 82
SWIDTH 740 0
DWIDTH 23 0
BBX 22 24 1 0
BITMAP
FFFF00
FFFFC0
7FFFE0
7E07E0
7E03F0
7E03F0
7E03F0
7E03F0
7E03E0
7E07E0
7E0FC0
7E7F80
7FFF00
7FFF00
7E1F80
7E1F80
7E0FC0
7E0FC0
7E07E0
7E07E0
7E03F0
7E03F0
FF07FC
FF07FC
ENDCHAR

STARTCHAR S
ENCODING 83
SWIDTH 680 0
DWIDTH 22 0
BBX 19 24 1 0
BITMAP
03FC00
0FFF00
1F0F80
3E0380
3C01C0
7C0180
7E0000
7E0000
7FC000
7FFC00
3FFF00
1FFF80
0FFFC0
03FFE0
001FE0
0007E0
0003E0
E003E0
F003C0
F007C0
7C0F80
3FFF00
0FFC00
03F000
ENDCHAR

STARTCHAR T
ENCODING 84
SWIDTH 680 0
DWIDTH 22 0
BBX 20 24 0 0
BITMAP
7FFFE0
7FFFE0
F9F9F0
E1F870
C1F830
01F800
01F800
01F800
01F800
01F800
01F800
01F800
01F800
01F800
01F800
01F800
01F800
01F800
01F800
01F800
01F800
01F800
03FC00
03FC00
ENDCHAR

STARTCHAR U
ENCODING 85
SWIDTH 760 0
DWIDTH 24 0
BBX 21 24 1 0
BITMAP
FF00F8
FF00F8
7E0070
7E0070
7E0070
7E0070
7E0070
7E0070
7E0070
7E0070
7E0070
7E0070
7E0070
7E0070
7E0070
7E0070
7E0070
7E0070
7E0060
3F00E0
3F00E0
1F83C0
0FFF80
03FE00
ENDCHAR

STARTCHAR V
ENCODING 86
SWIDTH 740 0
DWIDTH 23 0
BBX 23 24 0 0
BITMAP
FF80FE
FF80FE
7E003C
7E0038
3E0038
3F0038
3F0030
1F0070
1F0070
1F8060
0F80E0
0F80E0
0FC0C0
07C1C0
07E1C0
07E180
03F380
03F300
01F300
01FF00
00FE00
00FE00
007C00
003800
ENDCHAR

STARTCHAR W
ENCODING 87
SWIDTH 1000 0
DWIDTH 32 0
BBX 30 24 0 0
BITMAP
FF0FF0FC
FF0FF0FC
7E07E078
7E07E038
3E07E030
3E07E030
3E07E030
3F07E030
1F07E070
1F07F070
1F07F060
1F0FF060
1F8FF0E0
0F8CF8E0
0F8CF8C0
0FCCF9C0
07DC7DC0
07D87D80
07F87F80
03F83F80
03F03F00
03F03F00
01E01F00
00E00E00
ENDCHAR

STARTCHAR X
ENCODING 88
SWIDTH 740 0
DWIDTH 23 0
BBX 22 24 0 0
BITMAP
FF83F8
FF81F8
3F00F0
3F01E0
1F81C0
1FC380
0FC700
07EE00
07FC00
03FC00
01F800
01FC00
00FE00
01FE00
01FF00
039F80
071F80
0E0FC0
0E0FE0
1C07E0
3C03F0
7C03F8
FC07FC
FE07FC
ENDCHAR

STARTCHAR Y
ENCODING 89
SWIDTH 740 0
DWIDTH 23 0
BBX 22 24 0 0
BITMAP
FF80FC
FF80FC
7F0078
3F0070
3F0070
1F80E0
0F80C0
0FC1C0
07C380
07E380
03F700
01FE00
01FE00
00FC00
00FC00
00FC00
00FC00
00FC00
00FC00
00FC00
00FC00
00FC00
01FE00
01FE00
ENDCHAR

STARTCHAR Z
ENCODING 90
SWIDTH 620 0
DWIDTH 20 0
BBX 18 24 0 0
BITMAP
7FFF80
7FFFC0
7FFFC0
601F80
601F80
003F00
003F00
007E00
00FE00
00FC00
01F800
03F800
03F000
07E000
0FE000
0FC000
1FC000
1F8000
3F0040
7F00C0
7E01C0
FFFF80
FFFF80
7FFF80
ENDCHAR

STARTCHAR bracketleft
ENCODING 91
SWIDTH 320 0
DWIDTH 10 0
BBX 6 30 2 -6
BITMAP
FC
FC
F8
F0
F0
F0
F0
F0
F0
F0
F0
F0
F0
F0
F0
F0
F0
F0
F0
F0
F0
F0
F0
F0
F0
F0
F0
F8
FC
FC
ENDCHAR

STARTCHAR backslash
ENCODING 92
SWIDTH 640 0
DWIDTH 20 0
BBX 11 24 4 0
BITMAP
C000
C000
6000
6000
3000
3000
3000
1800
1800
0C00
0C00
0C00
0600
0600
0300
0300
0300
0180
0180
00C0
00C0
00C0
0060
0060
ENDCHAR

STARTCHAR bracketright
ENCODING 93
SWIDTH 320 0
DWIDTH 10 0
BBX 6 30 1 -6
BITMAP
FC
FC
7C
3C
3C
3C
3C
3C
3C
3C
3C
3C
3C
3C
3C
3C
3C
3C
3C
3C
3C
3C
3C
3C
3C
3C
3C
7C
FC
FC
ENDCHAR

STARTCHAR asciicircum
ENCODING 94
SWIDTH 660 0
DWIDTH 21 0
BBX 18 18 1 6
BITMAP
00C000
01E000
01E000
03F000
033000
073800
061800
0E1800
0E1C00
0C0C00
1C0E00
180600
380700
300700
700380
700380
600180
E001C0
ENDCHAR

STARTCHAR underscore
ENCODING 95
SWIDTH 500 0
DWIDTH 16 0
BBX 16 3 0 -5
BITMAP
FFFF
FFFF
FFFF
ENDCHAR

STARTCHAR quoteleft
ENCODING 96
SWIDTH 320 0
DWIDTH 10 0
BBX 5 8 2 16
BITMAP
10
60
60
C0
F0
F8
F8
70
ENDCHAR

STARTCHAR a
ENCODING 97
SWIDTH 580 0
DWIDTH 18 0
BBX 16 16 1 0
BITMAP
0FE0
3FF8
7CFC
787C
003E
003E
0FFE
3FFE
7E3E
7C3E
F83E
F83E
F87E
FFFE
7FBF
1F3F
ENDCHAR

STARTCHAR b
ENCODING 98
SWIDTH 620 0
DWIDTH 19 0
BBX 17 24 1 0
BITMAP
1C0000
FC0000
FC0000
7C0000
7C0000
7C0000
7C0000
7C0000
7DF800
7FFE00
7F3F00
7E1F00
7E1F80
7C0F80
7C0F80
7C0F80
7C0F80
7C0F80
7C0F80
7C1F00
3E1F00
3E3E00
1FF800
07E000
ENDCHAR

STARTCHAR c
ENCODING 99
SWIDTH 520 0
DWIDTH 16 0
BBX 14 16 1 0
BITMAP
07E0
1FF8
3E7C
7C3C
7C1C
F800
F800
F800
F800
F800
F800
7C04
7E1C
3FF8
1FF0
07C0
ENDCHAR

STARTCHAR d
ENCODING 100
SWIDTH 620 0
DWIDTH 20 0
BBX 17 24 1 0
BITMAP
000F00
003F00
003F00
001F00
001F00
001F00
001F00
001F00
07DF00
1FFF00
3E7F00
7C3F00
7C1F00
F81F00
F81F00
F81F00
F81F00
F81F00
FC1F00
7C1F00
7E3F00
3FFF00
1FEF80
078F80
ENDCHAR

STARTCHAR e
ENCODING 101
SWIDTH 560 0
DWIDTH 18 0
BBX 15 16 1 0
BITMAP
03F0
0FFC
3E3E
7C3E
7C3E
F83E
F87C
F9F8
FFE0
FE00
F800
7C06
7F0E
3FFC
0FF8
03E0
ENDCHAR

STARTCHAR f
ENCODING 102
SWIDTH 360 0
DWIDTH 11 0
BBX 11 24 1 0
BITMAP
03C0
0FE0
1FE0
1EC0
3E00
3E00
3E00
3E00
FFC0
FFC0
3E00
3E00
3E00
3E00
3E00
3E00
3E00
3E00
3E00
3E00
3E00
3E00
7F00
7F00
ENDCHAR

STARTCHAR g
ENCODING 103
SWIDTH 600 0
DWIDTH 19 0
BBX 17 22 1 -6
BITMAP
07FF80
1FFF80
3E7C00
7C3E00
7C3E00
F81F00
F81F00
F81F00
F81F00
F81F00
7C3E00
7C3E00
3E7C00
1FF800
07FE00
001F00
300F80
700F80
F81F00
FFFF00
7FFC00
1FF000
ENDCHAR

STARTCHAR h
ENCODING 104
SWIDTH 620 0
DWIDTH 20 0
BBX 17 24 1 0
BITMAP
3C0000
FC0000
FC0000
7C0000
7C0000
7C0000
7C0000
7C0000
7CF000
7FFC00
7FFE00
7E3E00
7C1F00
7C1F00
7C1F00
7C1F00
7C1F00
7C1F00
7C1F00
7C1F00
7C1F00
7C1F00
FE3F80
FE3F80
ENDCHAR

STARTCHAR i
ENCODING 105
SWIDTH 300 0
DWIDTH 9 0
BBX 7 23 1 0
BITMAP
78
FC
FC
FC
78
00
00
3C
FC
FC
7C
7C
7C
7C
7C
7C
7C
7C
7C
7C
7C
FE
FE
ENDCHAR

STARTCHAR j
ENCODING 106
SWIDTH 300 0
DWIDTH 9 0
BBX 9 29 -2 -6
BITMAP
0F00
1F80
1F80
1F80
0F00
0000
0000
0780
1F80
1F80
0F80
0F80
0F80
0F80
0F80
0F80
0F80
0F80
0F80
0F80
0F80
0F80
0F80
0F80
0F80
EF00
FF00
FE00
7C00
ENDCHAR

STARTCHAR k
ENCODING 107
SWIDTH 600 0
DWIDTH 19 0
BBX 17 24 1 0
BITMAP
3C0000
FC0000
FC0000
7C0000
7C0000
7C0000
7C0000
7C0000
7C3F00
7C3E00
7C1C00
7C3800
7C7000
7CE000
7DE000
7FF000
7FF800
7CFC00
7C7C00
7C7E00
7C3F00
7C1F00
FE3F80
FE3F80
ENDCHAR

STARTCHAR l
ENCODING 108
SWIDTH 300 0
DWIDTH 9 0
BBX 7 24 1 0
BITMAP
3C
FC
FC
7C
7C
7C
7C
7C
7C
7C
7C
7C
7C
7C
7C
7C
7C
7C
7C
7C
7C
7C
FE
FE
ENDCHAR

STARTCHAR m
ENCODING 109
SWIDTH 920 0
DWIDTH 29 0
BBX 27 16 1 0
BITMAP
38F83E00
FBFCFF80
FFFFFF80
7E3F8FC0
7C1F07C0
7C1F07C0
7C1F07C0
7C1F07C0
7C1F07C0
7C1F07C0
7C1F07C0
7C1F07C0
7C1F07C0
7C1F07C0
FE3F8FE0
FE3F8FE0
ENDCHAR

STARTCHAR n
ENCODING 110
SWIDTH 620 0
DWIDTH 20 0
BBX 17 16 1 0
BITMAP
38F800
FBFE00
FFFE00
7E3F00
7C1F00
7C1F00
7C1F00
7C1F00
7C1F00
7C1F00
7C1F00
7C1F00
7C1F00
7C1F00
FE3F80
FE3F80
ENDCHAR

STARTCHAR o
ENCODING 111
SWIDTH 620 0
DWIDTH 20 0
BBX 17 16 1 0
BITMAP
07F000
1FFC00
3E3E00
7C1F00
7C1F00
F80F80
F80F80
F80F80
F80F80
F80F80
F80F80
7C1F00
7C1F00
3E3E00
1FF800
07E000
ENDCHAR

STARTCHAR p
ENCODING 112
SWIDTH 640 0
DWIDTH 20 0
BBX 18 22 1 -6
BITMAP
18F800
FBFE00
FFFF00
7E1F80
7C0F80
7C0FC0
7C07C0
7C07C0
7C07C0
7C07C0
7C0FC0
7C0F80
7C1F80
7DFF00
7DFE00
7CF800
7C0000
7C0000
7C0000
7C0000
FF0000
FF0000
ENDCHAR

STARTCHAR q
ENCODING 113
SWIDTH 620 0
DWIDTH 20 0
BBX 17 22 1 -6
BITMAP
07E300
1FFF00
3E3F00
7C1F00
7C1F00
F81F00
F81F00
F81F00
F81F00
F81F00
F81F00
FC1F00
7C3F00
7E7F00
3FFF00
0F9F00
001F00
001F00
001F00
001F00
003F80
003F80
ENDCHAR

STARTCHAR r
ENCODING 114
SWIDTH 440 0
DWIDTH 14 0
BBX 13 16 1 0
BITMAP
1870
7CF8
FDF8
7FF0
3F00
3E00
3E00
3E00
3E00
3E00
3E00
3E00
3E00
3E00
7F00
7F00
ENDCHAR

STARTCHAR s
ENCODING 115
SWIDTH 500 0
DWIDTH 16 0
BBX 13 16 1 0
BITMAP
0FC0
3FF0
7C70
F830
F810
FC00
FFC0
7FF0
3FF0
0FF8
01F8
C0F8
E0F8
F1F0
7FE0
1F80
ENDCHAR

STARTCHAR t
ENCODING 116
SWIDTH 380 0
DWIDTH 12 0
BBX 11 21 0 0
BITMAP
0600
0600
0E00
1E00
1E00
3E00
FFC0
FFC0
3E00
3E00
3E00
3E00
3E00
3E00
3E00
3E00
3E00
3E00
3F00
3FE0
1FE0
ENDCHAR

STARTCHAR u
ENCODING 117
SWIDTH 620 0
DWIDTH 20 0
BBX 17 16 1 0
BITMAP
3C0F00
FC3F00
FC3F00
7C1F00
7C1F00
7C1F00
7C1F00
7C1F00
7C1F00
7C1F00
7C1F00
7C1F00
7C1F00
7E3F00
3FFF80
0FCF80
ENDCHAR

STARTCHAR v
ENCODING 118
SWIDTH 540 0
DWIDTH 17 0
BBX 16 16 0 0
BITMAP
FF1F
FF1F
7C0E
7C0E
3E0E
3E0C
3E0C
1F1C
1F18
1F18
0FB8
0FB0
07F0
07E0
03E0
01C0
ENDCHAR

STARTCHAR w
ENCODING 119
SWIDTH 800 0
DWIDTH 25 0
BBX 24 16 0 0
BITMAP
FE7F1F
FE7F1F
7C3E0E
7C3E0E
7C3E0E
3C3E0C
3E3F0C
3E3F0C
3E3F18
1E3F98
1F6F98
1F6FB0
0FC7F0
0FC7E0
0783E0
0781C0
ENDCHAR

STARTCHAR x
ENCODING 120
SWIDTH 560 0
DWIDTH 18 0
BBX 17 16 0 0
BITMAP
FF1F00
FF1F00
7E0E00
3F1C00
1FB800
0FF000
07E000
07E000
03F000
07F800
0FF800
1CFC00
387E00
783F00
FC7F80
FC7F80
ENDCHAR

STARTCHAR y
ENCODING 121
SWIDTH 540 0
DWIDTH 17 0
BBX 17 22 0 -6
BITMAP
FE0F80
FE0F80
7C0700
7C0700
7C0700
7C0700
7E0600
3E0600
3E0E00
3E0E00
3F0C00
1F0C00
1F1C00
0FB800
07F800
03F000
007000
00E000
19C000
3F8000
3F0000
1E0000
ENDCHAR

STARTCHAR z
ENCODING 122
SWIDTH 500 0
DWIDTH 16 0
BBX 14 16 1 0
BITMAP
7FFC
7FFC
70F8
61F8
03F0
03F0
07E0
0FC0
0FC0
1F80
3F00
7E0C
7E0C
FC1C
FFFC
FFF8
ENDCHAR

STARTCHAR braceleft
ENCODING 123
SWIDTH 340 0
DWIDTH 11 0
BBX 9 30 0 -6
BITMAP
0780
0F00
1E00
1E00
1E00
1E00
1E00
1E00
1E00
1E00
1E00
1E00
1E00
3C00
F800
3C00
1E00
1E00
1E00
1E00
1E00
1E00
1E00
1E00
1E00
1E00
1E00
1E00
0F00
0780
ENDCHAR

STARTCHAR bar
ENCODING 124
SWIDTH 660 0
DWIDTH 21 0
BBX 2 24 9 0
BITMAP
C0
C0
C0
C0
C0
C0
C0
C0
C0
C0
C0
C0
C0
C0
C0
C0
C0
C0
C0
C0
C0
C0
C0
C0
ENDCHAR

STARTCHAR braceright
ENCODING 125
SWIDTH 340 0
DWIDTH 11 0
BBX 9 30 1 -6
BITMAP
F000
7800
3C00
3C00
3C00
3C00
3C00
3C00
3C00
3C00
3C00
3C00
3C00
1E00
0F80
1E00
3C00
3C00
3C00
3C00
3C00
3C00
3C00
3C00
3C00
3C00
3C00
3C00
7800
F000
ENDCHAR

STARTCHAR asciitilde
ENCODING 126
SWIDTH 660 0
DWIDTH 21 0
BBX 16 5 2 7
BITMAP
1E02
7F87
FFFF
E3FE
40F8
ENDCHAR

STARTCHAR space
ENCODING 160
SWIDTH 340 0
DWIDTH 11 0
BBX 1 1 0 0
BITMAP
00
ENDCHAR

STARTCHAR exclamdown
ENCODING 161
SWIDTH 360 0
DWIDTH 12 0
BBX 6 25 2 -7
BITMAP
78
FC
FC
FC
78
00
00
30
30
30
78
78
78
78
78
78
78
78
FC
FC
FC
FC
FC
FC
78
ENDCHAR

STARTCHAR cent
ENCODING 162
SWIDTH 680 0
DWIDTH 22 0
BBX 14 23 3 1
BITMAP
0180
0180
0180
0180
07E0
1FF8
3E7C
3C3C
7818
7800
F800
F800
F800
F800
7800
7C0C
3E3C
3FF8
0FE0
0180
0180
0180
0180
ENDCHAR

STARTCHAR sterling
ENCODING 163
SWIDTH 680 0
DWIDTH 22 0
BBX 20 24 0 0
BITMAP
00FC00
03FF00
07C780
0F83C0
0F03C0
1F01C0
1F0180
1F0000
1F0000
1F0000
1F0000
7FFE00
FFFC00
0F0000
0F8000
0F8000
0F8000
0F8000
0F0030
0F7870
1FFFE0
3FFFC0
7FFF80
701F00
ENDCHAR

STARTCHAR EuroSign
ENCODING 164
SWIDTH 504 0
DWIDTH 17 0
BBX 17 23 -1 0
BITMAP
007E00
01C380
038180
078180
0F0080
0F0080
1F0000
1E0000
3E0000
3E0000
FFFE00
3E0000
3E0000
FFFC00
3E0000
3E0000
3E0000
1E0000
1F0080
0F0100
0F0100
078600
01F800
ENDCHAR

STARTCHAR yen
ENCODING 165
SWIDTH 760 0
DWIDTH 22 0
BBX 21 24 0 0
BITMAP
FF01F8
FF01F8
7E00F0
3E00E0
1E01C0
1F01C0
0F0380
0F8300
07C700
07C600
03EE00
03FC00
0FFF80
0FFF80
00F800
00F800
00F800
0FFF80
0FFF80
00F800
00F800
00F800
01FC00
01FC00
ENDCHAR

STARTCHAR Scaron
ENCODING 166
SWIDTH 680 0
DWIDTH 22 0
BBX 19 31 1 0
BITMAP
0C0600
071C00
03F800
01F000
00E000
004000
000000
03FC00
0FFF00
1F0F80
3E0380
3C01C0
7C0180
7E0000
7E0000
7FC000
7FFC00
3FFF00
1FFF80
0FFFC0
03FFE0
001FE0
0007E0
0003E0
E003E0
F003C0
F007C0
7C0F80
3FFF00
0FFC00
03F000
ENDCHAR

STARTCHAR section
ENCODING 167
SWIDTH 600 0
DWIDTH 19 0
BBX 16 31 1 -7
BITMAP
03F0
0FFC
1C1C
380C
380E
7806
7C00
3F00
3FC0
1FF0
1FFC
3BFE
70FE
E03F
F00F
F80F
7F06
7FCE
3FFC
1FF8
07FC
01FC
007E
C03E
C03E
E01E
F01C
781C
7C38
3FF0
0FC0
ENDCHAR

STARTCHAR scaron
ENCODING 168
SWIDTH 500 0
DWIDTH 16 0
BBX 13 23 1 0
BITMAP
6030
38E0
1FC0
0F80
0700
0200
0000
0FC0
3FF0
7C70
F830
F810
FC00
FFC0
7FF0
3FF0
0FF8
01F8
C0F8
E0F8
F1F0
7FE0
1F80
ENDCHAR

STARTCHAR copyright
ENCODING 169
SWIDTH 840 0
DWIDTH 27 0
BBX 23 24 1 0
BITMAP
00FE00
03FF80
0F01E0
1C0070
303C18
30FF18
61C38C
63818C
C30186
C70006
C70006
C70006
C70006
C70006
C70006
C30086
63818C
61C38C
30FF18
383C38
1C0070
0F01E0
07FFC0
00FE00
ENDCHAR

STARTCHAR ordfeminine
ENCODING 170
SWIDTH 440 0
DWIDTH 14 0
BBX 11 13 1 11
BITMAP
1E00
7F80
63C0
03C0
3FC0
71C0
E1C0
F3C0
7FE0
3DE0
0000
0000
FFE0
ENDCHAR

STARTCHAR guillemotleft
ENCODING 171
SWIDTH 380 0
DWIDTH 12 0
BBX 10 11 1 4
BITMAP
0840
18C0
3180
7380
6300
E700
6300
7380
3180
18C0
0840
ENDCHAR

STARTCHAR logicalnot
ENCODING 172
SWIDTH 660 0
DWIDTH 21 0
BBX 16 10 2 3
BITMAP
FFFF
FFFF
FFFF
0007
0007
0007
0007
0007
0007
0007
ENDCHAR

STARTCHAR hyphen
ENCODING 173
SWIDTH 340 0
DWIDTH 11 0
BBX 9 4 1 7
BITMAP
7F00
FF80
FF80
7F00
ENDCHAR

STARTCHAR registered
ENCODING 174
SWIDTH 840 0
DWIDTH 27 0
BBX 23 24 1 0
BITMAP
00FE00
03FF80
0F01E0
1C0070
3BFE38
33FF18
61838C
61818C
C18186
C18386
C18706
C1FE06
C1FE06
C18606
C18306
C18306
61818C
61818C
33C3D8
380038
1C0070
0F01E0
03FF80
00FE00
ENDCHAR

STARTCHAR macron
ENCODING 175
SWIDTH 440 0
DWIDTH 14 0
BBX 10 4 2 17
BITMAP
7F80
FFC0
FFC0
7F80
ENDCHAR

STARTCHAR degree
ENCODING 176
SWIDTH 400 0
DWIDTH 13 0
BBX 10 10 1 14
BITMAP
1E00
7F80
E1C0
C0C0
C0C0
C0C0
C0C0
E1C0
7F80
1E00
ENDCHAR

STARTCHAR plusminus
ENCODING 177
SWIDTH 660 0
DWIDTH 21 0
BBX 15 16 3 1
BITMAP
0380
0380
0380
0380
FFFE
FFFE
FFFE
0380
0380
0380
0380
0000
0000
FFFE
FFFE
FFFE
ENDCHAR

STARTCHAR twosuperior
ENCODING 178
SWIDTH 408 0
DWIDTH 13 0
BBX 11 14 1 10
BITMAP
1F00
7FC0
E3E0
F1E0
E1E0
01C0
03C0
0780
0F00
1E00
3C20
7FE0
FFE0
FFC0
ENDCHAR

STARTCHAR threesuperior
ENCODING 179
SWIDTH 408 0
DWIDTH 13 0
BBX 11 14 1 10
BITMAP
1E00
7F80
E3C0
E3C0
03C0
0780
1F00
07C0
01E0
01E0
E1E0
E3E0
7FC0
1F00
ENDCHAR

STARTCHAR Zcaron
ENCODING 180
SWIDTH 620 0
DWIDTH 20 0
BBX 18 31 0 0
BITMAP
0C0600
071C00
03F800
01F000
00E000
004000
000000
7FFF80
7FFFC0
7FFFC0
601F80
601F80
003F00
003F00
007E00
00FE00
00FC00
01F800
03F800
03F000
07E000
0FE000
0FC000
1FC000
1F8000
3F0040
7F00C0
7E01C0
FFFF80
FFFF80
7FFF80
ENDCHAR

STARTCHAR mu
ENCODING 181
SWIDTH 620 0
DWIDTH 20 0
BBX 17 22 1 -6
BITMAP
1C0700
FC3F00
FC3F00
7C1F00
7C1F00
7C1F00
7C1F00
7C1F00
7C1F00
7C1F00
7C1F00
7C1F00
7E3F00
7FFF00
77EF80
73CF80
700000
700000
700000
F00000
F00000
600000
ENDCHAR

STARTCHAR paragraph
ENCODING 182
SWIDTH 780 0
DWIDTH 25 0
BBX 23 30 0 -6
BITMAP
07FFFE
1FFFFE
3F0E70
7C0E70
7C0E70
F80E70
F80E70
F80E70
F80E70
F80E70
7C0E70
7C0E70
3E0E70
1F0E70
0FCE70
03FE70
007E70
000E70
000E70
000E70
000E70
000E70
000E70
000E70
000E70
000E70
000E70
000E70
000E70
000420
ENDCHAR

STARTCHAR periodcentered
ENCODING 183
SWIDTH 340 0
DWIDTH 11 0
BBX 6 5 2 7
BITMAP
78
FC
FC
FC
78
ENDCHAR

STARTCHAR zcaron
ENCODING 184
SWIDTH 500 0
DWIDTH 16 0
BBX 14 23 1 0
BITMAP
3018
1C70
0FE0
07C0
0380
0100
0000
7FFC
7FFC
70F8
61F8
03F0
03F0
07E0
0FC0
0FC0
1F80
3F00
7E0C
7E0C
FC1C
FFFC
FFF8
ENDCHAR

STARTCHAR onesuperior
ENCODING 185
SWIDTH 408 0
DWIDTH 13 0
BBX 9 14 1 10
BITMAP
0E00
3E00
FE00
1E00
1E00
1E00
1E00
1E00
1E00
1E00
1E00
1E00
3F00
7F80
ENDCHAR

STARTCHAR ordmasculine
ENCODING 186
SWIDTH 440 0
DWIDTH 14 0
BBX 12 13 1 11
BITMAP
0F00
3FC0
79E0
70E0
F0F0
F0F0
70E0
79E0
3FC0
0F00
0000
0000
FFF0
ENDCHAR

STARTCHAR guillemotright
ENCODING 187
SWIDTH 380 0
DWIDTH 12 0
BBX 10 11 1 4
BITMAP
8400
C600
6300
7380
3180
39C0
3180
7380
6300
C600
8400
ENDCHAR

STARTCHAR Ligature_OE
ENCODING 188
SWIDTH 1200 0
DWIDTH 38 0
BBX 32 24 1 0
BITMAP
00FE3FFF
03FFBFFF
0FE3FF03
1F81FE01
1F00FE01
3E007E00
7E007E00
7C007E00
7C003E00
FC003E02
FC003FFF
FC003FFF
FC003FFF
FC003E02
FC003E00
FC003E00
7C003E00
7E007E00
7E007E00
3F007E01
1F00FE01
0FC3FF01
07FFBFFF
01FE3FFF
ENDCHAR

STARTCHAR Ligature_oe
ENCODING 189
SWIDTH 960 0
DWIDTH 31 0
BBX 28 16 1 0
BITMAP
07F03F80
1FF8FFC0
3E3FE3E0
7C1FC1F0
7C1FC1F0
F80F81F0
F80F83E0
F80F8FE0
F80FFF80
F80FFC00
F80F8000
7C1FC030
7C1FE070
3E7FFFE0
0FF8FF80
03E03E00
ENDCHAR

STARTCHAR Ydiaeresis
ENCODING 190
SWIDTH 740 0
DWIDTH 23 0
BBX 22 31 0 0
BITMAP
038380
07C7C0
07C7C0
07C7C0
038380
000000
000000
FF80FC
FF80FC
7F0078
3F0070
3F0070
1F80E0
0F80C0
0FC1C0
07C380
07E380
03F700
01FE00
01FE00
00FC00
00FC00
00FC00
00FC00
00FC00
00FC00
00FC00
00FC00
00FC00
01FE00
01FE00
ENDCHAR

STARTCHAR questiondown
ENCODING 191
SWIDTH 540 0
DWIDTH 17 0
BBX 14 25 2 -7
BITMAP
03C0
07E0
07E0
07E0
03C0
0000
0000
0180
01C0
01C0
03C0
07C0
1F80
3F00
7E00
7C00
F800
F800
F818
F83C
F83C
783C
7C78
3FF0
0FC0
ENDCHAR

STARTCHAR Agrave
ENCODING 192
SWIDTH 740 0
DWIDTH 23 0
BBX 23 31 0 0
BITMAP
01E000
01F000
00F000
007800
001800
000C00
000000
003800
007C00
007C00
00FE00
00FE00
01FE00
019F00
019F00
039F80
030F80
070F80
0707C0
0607C0
0E07C0
0FFFE0
0FFFE0
1FFFF0
1C01F0
1801F0
3800F8
3800F8
3800F8
FC01FE
FC01FE
ENDCHAR

STARTCHAR Aacute
ENCODING 193
SWIDTH 740 0
DWIDTH 23 0
BBX 23 31 0 0
BITMAP
000780
000F80
000F00
001E00
001800
003000
000000
003800
007C00
007C00
00FE00
00FE00
01FE00
019F00
019F00
039F80
030F80
070F80
0707C0
0607C0
0E07C0
0FFFE0
0FFFE0
1FFFF0
1C01F0
1801F0
3800F8
3800F8
3800F8
FC01FE
FC01FE
ENDCHAR

STARTCHAR Acircumflex
ENCODING 194
SWIDTH 740 0
DWIDTH 23 0
BBX 23 31 0 0
BITMAP
001000
003800
007C00
00FE00
01C700
030180
000000
003800
007C00
007C00
00FE00
00FE00
01FE00
019F00
019F00
039F80
030F80
070F80
0707C0
0607C0
0E07C0
0FFFE0
0FFFE0
1FFFF0
1C01F0
1801F0
3800F8
3800F8
3800F8
FC01FE
FC01FE
ENDCHAR

STARTCHAR Atilde
ENCODING 195
SWIDTH 740 0
DWIDTH 23 0
BBX 23 30 0 0
BITMAP
00F040
01FCC0
033F80
020F00
000000
000000
003800
007C00
007C00
00FE00
00FE00
01FE00
019F00
019F00
039F80
030F80
070F80
0707C0
0607C0
0E07C0
0FFFE0
0FFFE0
1FFFF0
1C01F0
1801F0
3800F8
3800F8
3800F8
FC01FE
FC01FE
ENDCHAR

STARTCHAR Adieresis
ENCODING 196
SWIDTH 740 0
DWIDTH 23 0
BBX 23 31 0 0
BITMAP
038700
07CF80
07CF80
07CF80
038700
000000
000000
003800
007C00
007C00
00FE00
00FE00
01FE00
019F00
019F00
039F80
030F80
070F80
0707C0
0607C0
0E07C0
0FFFE0
0FFFE0
1FFFF0
1C01F0
1801F0
3800F8
3800F8
3800F8
FC01FE
FC01FE
ENDCHAR

STARTCHAR Aring
ENCODING 197
SWIDTH 740 0
DWIDTH 23 0
BBX 23 31 0 0
BITMAP
007C00
00FE00
00C600
00C600
00FE00
007C00
000000
003800
007C00
007C00
00FE00
00FE00
01FE00
019F00
019F00
039F80
030F80
070F80
0707C0
0607C0
0E07C0
0FFFE0
0FFFE0
1FFFF0
1C01F0
1801F0
3800F8
3800F8
3800F8
FC01FE
FC01FE
ENDCHAR

STARTCHAR AE
ENCODING 198
SWIDTH 1020 0
DWIDTH 33 0
BBX 32 24 0 0
BITMAP
000FFFFC
001FFFFC
001FFFFC
003BF00C
0033F004
0073F000
0063F000
00E3F000
00C3F000
01C3F030
0183FFF0
0383FFF0
0303FFF0
07FFF030
07FFF000
0FFFF000
0C03F000
1C03F000
1C03F001
3803F003
3803F00F
7803FFFE
FE07FFFE
FE07FFFE
ENDCHAR

STARTCHAR Ccedilla
ENCODING 199
SWIDTH 760 0
DWIDTH 24 0
BBX 21 31 1 -7
BITMAP
007F00
01FFE0
07E3F0
0F80F8
1F0078
3E0038
3E0018
7C0018
7C0000
FC0000
FC0000
FC0000
FC0000
FC0000
FC0000
FC0000
7E0000
7E0008
3F0018
1F8038
1FC0F0
07FFE0
03FFC0
00FF00
001000
001000
003C00
000E00
000600
006E00
003C00
ENDCHAR

STARTCHAR Egrave
ENCODING 200
SWIDTH 660 0
DWIDTH 21 0
BBX 19 31 1 0
BITMAP
078000
07C000
03C000
01E000
006000
003000
000000
FFFF80
FFFF80
7FFF80
7E0180
7E0080
7E0000
7E0000
7E0000
7E0000
7E0600
7FFE00
7FFE00
7FFE00
7E0600
7E0000
7E0000
7E0000
7E0000
7E0020
7E0060
7E01E0
7FFFC0
FFFFC0
FFFFC0
ENDCHAR

STARTCHAR Eacute
ENCODING 201
SWIDTH 660 0
DWIDTH 21 0
BBX 19 31 1 0
BITMAP
003C00
007C00
007800
00F000
00C000
018000
000000
FFFF80
FFFF80
7FFF80
7E0180
7E0080
7E0000
7E0000
7E0000
7E0000
7E0600
7FFE00
7FFE00
7FFE00
7E0600
7E0000
7E0000
7E0000
7E0000
7E0020
7E0060
7E01E0
7FFFC0
FFFFC0
FFFFC0
ENDCHAR

STARTCHAR Ecircumflex
ENCODING 202
SWIDTH 660 0
DWIDTH 21 0
BBX 19 31 1 0
BITMAP
004000
00E000
01F000
03F800
071C00
0C0600
000000
FFFF80
FFFF80
7FFF80
7E0180
7E0080
7E0000
7E0000
7E0000
7E0000
7E0600
7FFE00
7FFE00
7FFE00
7E0600
7E0000
7E0000
7E0000
7E0000
7E0020
7E0060
7E01E0
7FFFC0
FFFFC0
FFFFC0
ENDCHAR

STARTCHAR Edieresis
ENCODING 203
SWIDTH 660 0
DWIDTH 21 0
BBX 19 31 1 0
BITMAP
0E0E00
1F1F00
1F1F00
1F1F00
0E0E00
000000
000000
FFFF80
FFFF80
7FFF80
7E0180
7E0080
7E0000
7E0000
7E0000
7E0000
7E0600
7FFE00
7FFE00
7FFE00
7E0600
7E0000
7E0000
7E0000
7E0000
7E0020
7E0060
7E01E0
7FFFC0
FFFFC0
FFFFC0
ENDCHAR

STARTCHAR Igrave
ENCODING 204
SWIDTH 340 0
DWIDTH 11 0
BBX 8 31 1 0
BITMAP
F0
F8
78
3C
0C
06
00
FF
FF
7E
7E
7E
7E
7E
7E
7E
7E
7E
7E
7E
7E
7E
7E
7E
7E
7E
7E
7E
7E
FF
FF
ENDCHAR

STARTCHAR Iacute
ENCODING 205
SWIDTH 340 0
DWIDTH 11 0
BBX 8 31 1 0
BITMAP
0F
1F
1E
3C
30
60
00
FF
FF
7E
7E
7E
7E
7E
7E
7E
7E
7E
7E
7E
7E
7E
7E
7E
7E
7E
7E
7E
7E
FF
FF
ENDCHAR

STARTCHAR Icircumflex
ENCODING 206
SWIDTH 340 0
DWIDTH 11 0
BBX 11 31 0 0
BITMAP
0400
0E00
1F00
3F80
71C0
C060
0000
7F80
7F80
3F00
3F00
3F00
3F00
3F00
3F00
3F00
3F00
3F00
3F00
3F00
3F00
3F00
3F00
3F00
3F00
3F00
3F00
3F00
3F00
7F80
7F80
ENDCHAR

STARTCHAR Idieresis
ENCODING 207
SWIDTH 340 0
DWIDTH 11 0
BBX 13 31 -1 0
BITMAP
7070
F8F8
F8F8
F8F8
7070
0000
0000
3FC0
3FC0
1F80
1F80
1F80
1F80
1F80
1F80
1F80
1F80
1F80
1F80
1F80
1F80
1F80
1F80
1F80
1F80
1F80
1F80
1F80
1F80
3FC0
3FC0
ENDCHAR

STARTCHAR Eth
ENCODING 208
SWIDTH 820 0
DWIDTH 26 0
BBX 25 24 -1 0
BITMAP
3FFE0000
3FFFC000
1FFFF000
1F83FC00
1F80FE00
1F807E00
1F803F00
1F803F00
1F801F00
1F801F80
7FF01F80
FFF81F80
7FF01F80
1F801F80
1F801F80
1F801F00
1F803F00
1F803F00
1F807E00
1F807E00
1F81FC00
1FFFF800
3FFFE000
3FFF0000
ENDCHAR

STARTCHAR Ntilde
ENCODING 209
SWIDTH 760 0
DWIDTH 24 0
BBX 22 30 1 0
BITMAP
01E080
03F980
067F00
041E00
000000
000000
FE01FC
FF01FC
3F8070
3FC070
3FC070
3FE070
3FF070
3BF070
3BF870
39F870
38FC70
38FE70
387E70
383F70
383FF0
381FF0
380FF0
380FF0
3807F0
3803F0
3803F0
3801F0
FE01F0
FE00F0
ENDCHAR

STARTCHAR Ograve
ENCODING 210
SWIDTH 860 0
DWIDTH 27 0
BBX 24 31 1 0
BITMAP
00F000
00F800
007800
003C00
000C00
000600
000000
00FF00
03FFC0
0FC3F0
1F00F8
3E0078
3E007C
7C003E
7C003E
7C003E
FC003F
FC003F
FC003F
FC003F
FC003F
FC003F
7C003E
7C003E
7C003E
3E007C
3E0078
1F00F0
0FC3E0
03FFC0
00FF00
ENDCHAR

STARTCHAR Oacute
ENCODING 211
SWIDTH 860 0
DWIDTH 27 0
BBX 24 31 1 0
BITMAP
000780
000F80
000F00
001E00
001800
003000
000000
00FF00
03FFC0
0FC3F0
1F00F8
3E0078
3E007C
7C003E
7C003E
7C003E
FC003F
FC003F
FC003F
FC003F
FC003F
FC003F
7C003E
7C003E
7C003E
3E007C
3E0078
1F00F0
0FC3E0
03FFC0
00FF00
ENDCHAR

STARTCHAR Ocircumflex
ENCODING 212
SWIDTH 860 0
DWIDTH 27 0
BBX 24 31 1 0
BITMAP
001000
003800
007C00
00FE00
01C700
030180
000000
00FF00
03FFC0
0FC3F0
1F00F8
3E0078
3E007C
7C003E
7C003E
7C003E
FC003F
FC003F
FC003F
FC003F
FC003F
FC003F
7C003E
7C003E
7C003E
3E007C
3E0078
1F00F0
0FC3E0
03FFC0
00FF00
ENDCHAR

STARTCHAR Otilde
ENCODING 213
SWIDTH 860 0
DWIDTH 27 0
BBX 24 30 1 0
BITMAP
00F040
01FCC0
033F80
020F00
000000
000000
00FF00
03FFC0
0FC3F0
1F00F8
3E0078
3E007C
7C003E
7C003E
7C003E
FC003F
FC003F
FC003F
FC003F
FC003F
FC003F
7C003E
7C003E
7C003E
3E007C
3E0078
1F00F0
0FC3E0
03FFC0
00FF00
ENDCHAR

STARTCHAR Odieresis
ENCODING 214
SWIDTH 860 0
DWIDTH 27 0
BBX 24 31 1 0
BITMAP
01C1C0
03E3E0
03E3E0
03E3E0
01C1C0
000000
000000
00FF00
03FFC0
0FC3F0
1F00F8
3E0078
3E007C
7C003E
7C003E
7C003E
FC003F
FC003F
FC003F
FC003F
FC003F
FC003F
7C003E
7C003E
7C003E
3E007C
3E0078
1F00F0
0FC3E0
03FFC0
00FF00
ENDCHAR

STARTCHAR multiply
ENCODING 215
SWIDTH 660 0
DWIDTH 21 0
BBX 16 17 2 1
BITMAP
2004
6006
F00F
781E
3C3C
1E78
0FF0
07E0
07E0
07E0
0FF0
1E78
3C3C
781E
F00F
6006
2004
ENDCHAR

STARTCHAR Oslash
ENCODING 216
SWIDTH 860 0
DWIDTH 27 0
BBX 24 26 1 -1
BITMAP
000006
00FF0E
03FFDC
0FC3F8
1F00F8
3E007C
3E00FC
7C01FE
7C01BE
7C033E
FC063F
FC0E3F
FC1C3F
FC383F
FC303F
FC603F
7CC03E
7D803E
7F803E
3F007C
3E0078
1F00F0
1FC3E0
3BFFC0
70FF00
600000
ENDCHAR

STARTCHAR Ugrave
ENCODING 217
SWIDTH 760 0
DWIDTH 24 0
BBX 21 31 1 0
BITMAP
01E000
01F000
00F000
007800
001800
000C00
000000
FF00F8
FF00F8
7E0070
7E0070
7E0070
7E0070
7E0070
7E0070
7E0070
7E0070
7E0070
7E0070
7E0070
7E0070
7E0070
7E0070
7E0070
7E0070
3E0070
3F00E0
3F00E0
1F83C0
1FFFC0
07FF00
ENDCHAR

STARTCHAR Uacute
ENCODING 218
SWIDTH 760 0
DWIDTH 24 0
BBX 21 31 1 0
BITMAP
000780
000F80
000F00
001E00
001800
003000
000000
FF00F8
FF00F8
7E0070
7E0070
7E0070
7E0070
7E0070
7E0070
7E0070
7E0070
7E0070
7E0070
7E0070
7E0070
7E0070
7E0070
7E0070
7E0070
3E0060
3F00E0
3F00E0
1F83C0
0FFF80
03FE00
ENDCHAR

STARTCHAR Ucircumflex
ENCODING 219
SWIDTH 760 0
DWIDTH 24 0
BBX 21 31 1 0
BITMAP
001000
003800
007C00
00FE00
01C700
030180
000000
FF00F8
FF00F8
7E0070
7E0070
7E0070
7E0070
7E0070
7E0070
7E0070
7E0070
7E0070
7E0070
7E0070
7E0070
7E0070
7E0070
7E0070
7E0070
3E0060
3F00E0
3F00E0
1F83C0
0FFF80
03FE00
ENDCHAR

STARTCHAR Udieresis
ENCODING 220
SWIDTH 760 0
DWIDTH 24 0
BBX 21 31 1 0
BITMAP
038380
07C7C0
07C7C0
07C7C0
038380
000000
000000
FF00F8
FF00F8
7E0070
7E0070
7E0070
7E0070
7E0070
7E0070
7E0070
7E0070
7E0070
7E0070
7E0070
7E0070
7E0070
7E0070
7E0070
7E0070
3E0060
3F00E0
3F00E0
1F83C0
0FFF80
03FE00
ENDCHAR

STARTCHAR Yacute
ENCODING 221
SWIDTH 740 0
DWIDTH 23 0
BBX 22 31 0 0
BITMAP
0003C0
0007C0
000780
000F00
000C00
001800
000000
FF80FC
FF80FC
7F0078
3F0070
3F8070
1F80E0
0F80C0
0FC1C0
07C180
07E380
03F700
01FE00
01FE00
00FC00
00FC00
00FC00
00FC00
00FC00
00FC00
00FC00
00FC00
00FC00
01FE00
01FE00
ENDCHAR

STARTCHAR Thorn
ENCODING 222
SWIDTH 680 0
DWIDTH 22 0
BBX 19 24 1 0
BITMAP
FF0000
FF0000
7E0000
7E0000
7E0000
7E0000
7FFC00
7FFF80
7E0FC0
7E07C0
7E07E0
7E07E0
7E07E0
7E07C0
7E0FC0
7E3F80
7FFE00
7FF800
7E0000
7E0000
7E0000
7E0000
FF0000
FF0000
ENDCHAR

STARTCHAR germandbls
ENCODING 223
SWIDTH 660 0
DWIDTH 21 0
BBX 19 24 0 0
BITMAP
01F800
07FE00
0FFF80
1F0F80
1E07C0
3E07C0
3E07C0
3E0780
3E0F80
3E1F00
3E7C00
3E7C00
3E7F00
3E1F80
3E07C0
3E03E0
3E01E0
3E01E0
3E71E0
3E71E0
3E73E0
7E7FC0
FE3F80
FC1F00
ENDCHAR

STARTCHAR agrave
ENCODING 224
SWIDTH 580 0
DWIDTH 18 0
BBX 16 23 1 0
BITMAP
0F00
0F80
0780
03C0
00C0
0060
0000
0FE0
3FF8
7CFC
787C
003E
003E
07FE
3FFE
7E3E
FC3E
F83E
F83E
FC7E
FFFE
7FBF
1E3F
ENDCHAR

STARTCHAR aacute
ENCODING 225
SWIDTH 580 0
DWIDTH 18 0
BBX 16 23 1 0
BITMAP
0078
00F8
00F0
01E0
0180
0300
0000
0FE0
3FF8
7CFC
787C
003E
003E
07FE
3FFE
7E3E
FC3E
F83E
F83E
FC7E
FFFE
7FBF
1E3F
ENDCHAR

STARTCHAR acircumflex
ENCODING 226
SWIDTH 580 0
DWIDTH 18 0
BBX 16 23 1 0
BITMAP
0100
0380
07C0
0FE0
1C70
3018
0000
0FE0
3FF8
7CFC
787C
003E
003E
07FE
3FFE
7E3E
FC3E
F83E
F83E
FC7E
FFFE
7FBF
1F3F
ENDCHAR

STARTCHAR atilde
ENCODING 227
SWIDTH 580 0
DWIDTH 18 0
BBX 16 22 1 0
BITMAP
0F04
1FCC
33F8
20F0
0000
0000
0FE0
3FF8
7CFC
787C
003E
003E
0FFE
3FFE
7E3E
FC3E
F83E
F83E
FC7E
FFFE
7FBF
1F3F
ENDCHAR

STARTCHAR adieresis
ENCODING 228
SWIDTH 580 0
DWIDTH 18 0
BBX 16 23 1 0
BITMAP
1C38
3E7C
3E7C
3E7C
1C38
0000
0000
0FE0
3FF8
7CFC
787C
003E
003E
07FE
3FFE
7E3E
FC3E
F83E
F83E
FC7E
FFFE
7FBF
1F3F
ENDCHAR

STARTCHAR aring
ENCODING 229
SWIDTH 580 0
DWIDTH 18 0
BBX 16 23 1 0
BITMAP
03C0
07E0
0660
0660
07E0
03C0
0000
0FE0
3FF8
7CFC
787C
003E
003E
07FE
3FFE
7E3E
FC3E
F83E
F83E
FC7E
FFFE
7FBF
1F3F
ENDCHAR

STARTCHAR ae
ENCODING 230
SWIDTH 880 0
DWIDTH 28 0
BBX 26 16 1 0
BITMAP
0FC0FC00
3FF3FF00
7C7F8F80
783F07C0
003F07C0
003E07C0
07FE3F80
3FFFFF00
7E3FF800
FC3E0000
F83E0000
F83F01C0
FC7F83C0
7FF7FF80
3FE3FE00
0F80F800
ENDCHAR

STARTCHAR ccedilla
ENCODING 231
SWIDTH 520 0
DWIDTH 16 0
BBX 15 23 1 -7
BITMAP
07E0
1FF8
3E7C
7C3C
7C1C
F800
F800
F800
F800
F800
F800
7C06
7E1E
3FFC
1FF0
07C0
0100
0100
03C0
00E0
0060
06E0
03C0
ENDCHAR

STARTCHAR egrave
ENCODING 232
SWIDTH 560 0
DWIDTH 18 0
BBX 15 23 1 0
BITMAP
0F00
0F80
0780
03C0
00C0
0060
0000
03F0
0FFC
3E3E
7C3E
7C3E
F83E
F87C
F9F8
FFE0
FE00
F800
7C06
7E0E
3FFC
0FF0
03C0
ENDCHAR

STARTCHAR eacute
ENCODING 233
SWIDTH 560 0
DWIDTH 18 0
BBX 15 23 1 0
BITMAP
003C
007C
0078
00F0
00C0
0180
0000
03F0
0FFC
3E3E
7C3E
7C3E
F83E
F87C
F9F8
FFE0
FE00
F800
7C06
7E0E
3FFC
0FF0
03C0
ENDCHAR

STARTCHAR ecircumflex
ENCODING 234
SWIDTH 560 0
DWIDTH 18 0
BBX 15 23 1 0
BITMAP
0100
0380
07C0
0FE0
1C70
3018
0000
03F0
0FFC
3E3E
7C3E
7C3E
F83E
F87C
F9F8
FFE0
FE00
F800
7C06
7E0E
3FFC
0FF0
03C0
ENDCHAR

STARTCHAR edieresis
ENCODING 235
SWIDTH 560 0
DWIDTH 18 0
BBX 15 23 1 0
BITMAP
1C38
3E7C
3E7C
3E7C
1C38
0000
0000
03F0
0FFC
3E3E
7C3E
7C3E
F83E
F87C
F8F8
FFE0
FF00
F800
7C06
7E0E
3FFC
0FF0
03C0
ENDCHAR

STARTCHAR igrave
ENCODING 236
SWIDTH 300 0
DWIDTH 10 0
BBX 8 23 0 0
BITMAP
F0
F8
78
3C
0C
06
00
1E
7E
7E
3E
3E
3E
3E
3E
3E
3E
3E
3E
3E
3E
7F
7F
ENDCHAR

STARTCHAR iacute
ENCODING 237
SWIDTH 300 0
DWIDTH 10 0
BBX 8 23 1 0
BITMAP
0F
1F
1E
3C
30
60
00
3C
FC
FC
7C
7C
7C
7C
7C
7C
7C
7C
7C
7C
7C
FE
FE
ENDCHAR

STARTCHAR icircumflex
ENCODING 238
SWIDTH 300 0
DWIDTH 10 0
BBX 11 23 -1 0
BITMAP
0400
0E00
1F00
3F80
71C0
C060
0000
0F00
3F00
3F00
1F00
1F00
1F00
1F00
1F00
1F00
1F00
1F00
1F00
1F00
1F00
3F80
3F80
ENDCHAR

STARTCHAR idieresis
ENCODING 239
SWIDTH 300 0
DWIDTH 10 0
BBX 12 23 -2 0
BITMAP
70E0
F9F0
F9F0
F9F0
70E0
0000
0000
0780
1F80
1F80
0F80
0F80
0F80
0F80
0F80
0F80
0F80
0F80
0F80
0F80
0F80
1FC0
1FC0
ENDCHAR

STARTCHAR eth
ENCODING 240
SWIDTH 660 0
DWIDTH 21 0
BBX 18 26 1 0
BITMAP
001C00
003C00
7E7800
7FF000
07F000
0FF800
1E7C00
1C3E00
001F00
000F00
07EF80
1FFF80
3E3FC0
7C0FC0
7C0FC0
F807C0
F807C0
F807C0
F807C0
F807C0
F80F80
7C0F80
7C1F00
3E3E00
1FFC00
07F000
ENDCHAR

STARTCHAR ntilde
ENCODING 241
SWIDTH 620 0
DWIDTH 20 0
BBX 17 22 1 0
BITMAP
0F0400
1FCC00
33F800
20F000
000000
000000
38F800
FBFE00
FFFE00
7E3F00
7C1F00
7C1F00
7C1F00
7C1F00
7C1F00
7C1F00
7C1F00
7C1F00
7C1F00
7C1F00
FE3F80
FE3F80
ENDCHAR

STARTCHAR ograve
ENCODING 242
SWIDTH 620 0
DWIDTH 20 0
BBX 17 23 1 0
BITMAP
1E0000
1F0000
0F0000
078000
018000
00C000
000000
07F000
1FFC00
3E3E00
7C1F00
7C1F00
F80F80
F80F80
F80F80
F80F80
F80F80
F80F80
7C1F00
7C1F00
3E3E00
1FF800
07E000
ENDCHAR

STARTCHAR oacute
ENCODING 243
SWIDTH 620 0
DWIDTH 20 0
BBX 17 23 1 0
BITMAP
003E00
007C00
007800
00F000
00C000
018000
000000
07F000
1FFC00
3E3E00
7C1F00
7C1F00
F80F80
F80F80
F80F80
F80F80
F80F80
F80F80
7C1F00
7C1F00
3E3E00
1FF800
07E000
ENDCHAR

STARTCHAR ocircumflex
ENCODING 244
SWIDTH 620 0
DWIDTH 20 0
BBX 17 23 1 0
BITMAP
008000
01C000
03E000
07F000
0E3800
180C00
000000
07F000
1FFC00
3E3E00
7C1F00
7C1F00
F80F80
F80F80
F80F80
F80F80
F80F80
F80F80
7C1F00
7C1F00
3E3E00
1FF800
07E000
ENDCHAR

STARTCHAR otilde
ENCODING 245
SWIDTH 620 0
DWIDTH 20 0
BBX 17 22 1 0
BITMAP
0F0400
1FCC00
33F800
20F000
000000
000000
07F000
1FFC00
3E3E00
7C1F00
7C1F00
F80F80
F80F80
F80F80
F80F80
F80F80
F80F80
7C1F00
7C1F00
3E3E00
1FF800
07E000
ENDCHAR

STARTCHAR odieresis
ENCODING 246
SWIDTH 620 0
DWIDTH 20 0
BBX 17 23 1 0
BITMAP
1C3800
3E7C00
3E7C00
3E7C00
1C3800
000000
000000
07F000
1FFC00
3E3E00
7C1F00
7C1F00
F80F80
F80F80
F80F80
F80F80
F80F80
F80F80
7C1F00
7C1F00
3E3E00
1FF800
07E000
ENDCHAR

STARTCHAR divide
ENCODING 247
SWIDTH 660 0
DWIDTH 21 0
BBX 15 19 3 0
BITMAP
0380
07C0
07C0
07C0
0380
0000
0000
0000
FFFE
FFFE
FFFE
0000
0000
0000
0380
07C0
07C0
07C0
0380
ENDCHAR

STARTCHAR oslash
ENCODING 248
SWIDTH 620 0
DWIDTH 20 0
BBX 17 18 1 -1
BITMAP
000200
03E600
0FFC00
3E3E00
7C1F00
783F00
F86F80
F86F80
F8CF80
F98F80
FB0F80
FB0F80
7E0F00
7C1F00
3E3E00
1FFC00
33F000
200000
ENDCHAR

STARTCHAR ugrave
ENCODING 249
SWIDTH 620 0
DWIDTH 20 0
BBX 17 23 1 0
BITMAP
0F0000
0F8000
078000
03C000
00C000
006000
000000
3C0F00
FC3F00
FC3F00
7C1F00
7C1F00
7C1F00
7C1F00
7C1F00
7C1F00
7C1F00
7C1F00
7C1F00
7E3F00
7FFF00
3FEF80
0FCF80
ENDCHAR

STARTCHAR uacute
ENCODING 250
SWIDTH 620 0
DWIDTH 20 0
BBX 17 23 1 0
BITMAP
003C00
007C00
007800
00F000
00C000
018000
000000
3C0F00
FC3F00
FC3F00
7C1F00
7C1F00
7C1F00
7C1F00
7C1F00
7C1F00
7C1F00
7C1F00
7C1F00
7E3F00
3FFF00
1FEF80
078F80
ENDCHAR

STARTCHAR ucircumflex
ENCODING 251
SWIDTH 620 0
DWIDTH 20 0
BBX 17 23 1 0
BITMAP
008000
01C000
03E000
07F000
0E3800
180C00
000000
3C0F00
FC3F00
FC3F00
7C1F00
7C1F00
7C1F00
7C1F00
7C1F00
7C1F00
7C1F00
7C1F00
7C1F00
7E3F00
3FFF00
1FEF80
078F80
ENDCHAR

STARTCHAR udieresis
ENCODING 252
SWIDTH 620 0
DWIDTH 20 0
BBX 17 23 1 0
BITMAP
1C1C00
3E3E00
3E3E00
3E3E00
1C1C00
000000
000000
3C0F00
FC3F00
FC3F00
7C1F00
7C1F00
7C1F00
7C1F00
7C1F00
7C1F00
7C1F00
7C1F00
7C1F00
7E3F00
7FFF00
3FEF80
0F8F80
ENDCHAR

STARTCHAR yacute
ENCODING 253
SWIDTH 540 0
DWIDTH 17 0
BBX 17 29 0 -6
BITMAP
003C00
007C00
007800
00F000
00C000
018000
000000
FE0F80
FE0F80
7C0700
7C0700
7C0700
7C0700
7E0600
3E0600
3E0E00
3E0E00
3F0C00
1F0C00
1F1C00
1FB800
0FF800
03F000
007000
00E000
19C000
3F8000
3F0000
1E0000
ENDCHAR

STARTCHAR thorn
ENCODING 254
SWIDTH 640 0
DWIDTH 20 0
BBX 18 28 1 -5
BITMAP
3C0000
FC0000
FC0000
7C0000
7C0000
7C0000
7C0000
7C7800
7DFE00
7FFF00
7F1F80
7E0F80
7C0FC0
7C07C0
7C07C0
7C07C0
7C07C0
7C0FC0
7C0F80
7C1F80
7DFF00
7DFE00
7C7800
7C0000
7C0000
7C0000
FF0000
FF0000
ENDCHAR

STARTCHAR ydieresis
ENCODING 255
SWIDTH 540 0
DWIDTH 17 0
BBX 17 29 0 -6
BITMAP
1C1C00
3E3E00
3E3E00
3E3E00
1C1C00
000000
000000
FE0F80
FE0F80
7C0700
7C0700
7C0700
7C0700
7E0600
3E0600
3E0E00
3E0E00
3F0C00
1F0C00
1F1C00
1FB800
0FF800
03F000
007000
00E000
19C000
3F8000
3F0000
1E0000
ENDCHAR
ENDFONT
